<svg width="1224" height="211" viewBox="0 0 1224 211" fill="none" xmlns="http://www.w3.org/2000/svg">
<path d="M51.2339 224.11C18.2679 224.11 0.851867 204.206 0.851867 170.618V53.682C0.851867 20.094 18.2679 0.189988 51.2339 0.189988C84.1999 0.189988 101.616 20.094 101.616 53.682V76.696H69.2719V51.505C69.2719 37.199 62.4299 31.29 52.1669 31.29C41.9039 31.29 35.0619 37.199 35.0619 51.505V173.106C35.0619 187.412 41.9039 193.01 52.1669 193.01C62.4299 193.01 69.2719 187.412 69.2719 173.106V141.384H101.616V170.618C101.616 204.206 84.1999 224.11 51.2339 224.11ZM171.844 224.11C138.256 224.11 119.907 204.206 119.907 169.374V54.926C119.907 20.094 138.256 0.189988 171.844 0.189988C205.432 0.189988 223.781 20.094 223.781 54.926V169.374C223.781 204.206 205.432 224.11 171.844 224.11ZM171.844 193.01C182.729 193.01 189.571 187.101 189.571 171.551V52.749C189.571 37.199 182.729 31.29 171.844 31.29C160.959 31.29 154.117 37.199 154.117 52.749V171.551C154.117 187.101 160.959 193.01 171.844 193.01ZM246.916 221V3.29999H295.121L317.824 161.288L340.527 3.29999H388.732V221H356.388V56.17L330.886 221H302.274L276.772 56.17V221H246.916ZM414.261 221V3.29999H464.643C498.853 3.29999 515.647 22.271 515.647 57.103V78.562C515.647 113.394 498.853 132.365 464.643 132.365H448.471V221H414.261ZM448.471 101.265H464.643C475.528 101.265 481.437 96.289 481.437 80.739V54.926C481.437 39.376 475.528 34.4 464.643 34.4H448.471V101.265ZM533.923 221V3.29999H627.223V34.4H568.133V91.935H615.094V123.035H568.133V189.9H627.223V221H533.923ZM672.435 221V34.4H636.67V3.29999H742.41V34.4H706.645V221H672.435ZM758.973 221V3.29999H793.183V221H758.973ZM845.55 221V34.4H809.785V3.29999H915.525V34.4H879.76V221H845.55ZM932.088 221V3.29999H966.298V221H932.088ZM1041.37 224.11C1007.78 224.11 989.431 204.206 989.431 169.374V54.926C989.431 20.094 1007.78 0.189988 1041.37 0.189988C1074.96 0.189988 1093.3 20.094 1093.3 54.926V169.374C1093.3 204.206 1074.96 224.11 1041.37 224.11ZM1041.37 193.01C1052.25 193.01 1059.09 187.101 1059.09 171.551V52.749C1059.09 37.199 1052.25 31.29 1041.37 31.29C1030.48 31.29 1023.64 37.199 1023.64 52.749V171.551C1023.64 187.101 1030.48 193.01 1041.37 193.01ZM1116.44 221V3.29999H1158.74L1193.26 133.609V3.29999H1223.74V221H1189.21L1146.92 62.079V221H1116.44Z" fill="#F8B895" fill-opacity="0.45" style="mix-blend-mode:multiply"/>
</svg>
