<svg width="1252" height="193" viewBox="0 0 1252 193" fill="none" xmlns="http://www.w3.org/2000/svg">
<path d="M0.136766 176V3.09999H27.3068V176H0.136766ZM47.6553 176V3.09999H89.1513C116.321 3.09999 129.659 18.167 129.659 45.831V133.269C129.659 160.933 116.321 176 89.1513 176H47.6553ZM74.8253 151.3H88.6573C97.3023 151.3 102.489 146.854 102.489 134.504V44.596C102.489 32.246 97.3023 27.8 88.6573 27.8H74.8253V151.3ZM206.056 176L201.363 142.161H169.994L165.301 176H140.107L168.265 3.09999H205.068L233.226 176H206.056ZM173.452 118.696H197.905L185.555 31.505L173.452 118.696ZM246.172 176V3.09999H273.342V73.495H302.488V3.09999H329.658V176H302.488V98.195H273.342V176H246.172ZM389.166 178.47C362.49 178.47 347.917 162.662 347.917 134.998V44.102C347.917 16.438 362.49 0.629991 389.166 0.629991C415.842 0.629991 430.415 16.438 430.415 44.102V134.998C430.415 162.662 415.842 178.47 389.166 178.47ZM389.166 153.77C397.811 153.77 403.245 149.077 403.245 136.727V42.373C403.245 30.023 397.811 25.33 389.166 25.33C380.521 25.33 375.087 30.023 375.087 42.373V136.727C375.087 149.077 380.521 153.77 389.166 153.77ZM523.669 178.47C496.993 178.47 483.655 162.662 483.655 134.998V125.118H509.343V136.974C509.343 149.324 514.777 153.77 523.422 153.77C532.067 153.77 537.748 149.324 537.748 136.48C537.748 122.154 531.82 113.262 514.036 97.701C491.312 77.694 483.655 63.368 483.655 43.608C483.655 16.438 497.734 0.629991 524.163 0.629991C550.592 0.629991 563.683 16.438 563.683 44.102V51.265H537.995V42.373C537.995 30.023 533.055 25.33 524.41 25.33C515.765 25.33 510.578 30.023 510.578 41.879C510.578 54.476 516.753 63.368 534.537 78.929C557.261 98.936 564.671 113.015 564.671 134.504C564.671 162.662 550.345 178.47 523.669 178.47ZM601.009 176V27.8H572.604V3.09999H656.584V27.8H628.179V176H601.009ZM717.182 176L712.489 142.161H681.12L676.427 176H651.233L679.391 3.09999H716.194L744.352 176H717.182ZM684.578 118.696H709.031L696.681 31.505L684.578 118.696ZM767.444 176V27.8H739.039V3.09999H823.019V27.8H794.614V176H767.444ZM836.174 176V3.09999H910.274V27.8H863.344V73.495H900.641V98.195H863.344V151.3H910.274V176H836.174ZM964.498 176V3.09999H1005.5C1033.66 3.09999 1045.76 16.191 1045.76 42.867V49.783C1045.76 67.567 1040.33 78.682 1028.22 83.622V84.116C1042.8 89.056 1048.48 101.9 1048.48 120.178V134.998C1048.48 161.674 1034.4 176 1007.23 176H964.498ZM991.668 73.495H1002.29C1012.42 73.495 1018.59 69.049 1018.59 55.217V45.584C1018.59 33.234 1014.39 27.8 1004.76 27.8H991.668V73.495ZM991.668 151.3H1007.23C1016.37 151.3 1021.31 147.101 1021.31 134.257V119.19C1021.31 103.135 1016.12 98.195 1003.77 98.195H991.668V151.3ZM1064.36 176V3.09999H1105.36C1133.52 3.09999 1145.62 16.191 1145.62 42.867V49.783C1145.62 67.567 1140.19 78.682 1128.09 83.622V84.116C1142.66 89.056 1148.34 101.9 1148.34 120.178V134.998C1148.34 161.674 1134.26 176 1107.09 176H1064.36ZM1091.53 73.495H1102.15C1112.28 73.495 1118.45 69.049 1118.45 55.217V45.584C1118.45 33.234 1114.25 27.8 1104.62 27.8H1091.53V73.495ZM1091.53 151.3H1107.09C1116.23 151.3 1121.17 147.101 1121.17 134.257V119.19C1121.17 103.135 1115.98 98.195 1103.63 98.195H1091.53V151.3ZM1247.21 167.355H1251.41V192.055H1244.25C1234.12 192.055 1224.74 188.35 1221.52 175.506C1216.34 177.482 1210.41 178.47 1203.49 178.47C1176.82 178.47 1162.24 162.662 1162.24 134.998V44.102C1162.24 16.438 1176.82 0.629991 1203.49 0.629991C1230.17 0.629991 1244.74 16.438 1244.74 44.102V134.998C1244.74 146.607 1242.03 156.24 1237.09 163.403C1239.06 166.861 1242.27 167.355 1247.21 167.355ZM1217.57 136.727V42.373C1217.57 30.023 1212.14 25.33 1203.49 25.33C1194.85 25.33 1189.41 30.023 1189.41 42.373V136.727C1189.41 149.077 1194.85 153.77 1203.49 153.77C1212.14 153.77 1217.57 149.077 1217.57 136.727Z" fill="#F8B895" fill-opacity="0.45" style="mix-blend-mode:multiply"/>
</svg>
