<svg width="1220" height="178" viewBox="0 0 1220 178" fill="none" xmlns="http://www.w3.org/2000/svg">
<path d="M40.4807 177.47C13.8047 177.47 0.466715 161.662 0.466715 133.998V124.118H26.1547V135.974C26.1547 148.324 31.5887 152.77 40.2337 152.77C48.8787 152.77 54.5597 148.324 54.5597 135.48C54.5597 121.154 48.6317 112.262 30.8477 96.701C8.12372 76.694 0.466715 62.368 0.466715 42.608C0.466715 15.438 14.5457 -0.370009 40.9747 -0.370009C67.4037 -0.370009 80.4947 15.438 80.4947 43.102V50.265H54.8067V41.373C54.8067 29.023 49.8667 24.33 41.2217 24.33C32.5767 24.33 27.3897 29.023 27.3897 40.879C27.3897 53.476 33.5647 62.368 51.3487 77.929C74.0727 97.936 81.4827 112.015 81.4827 133.504C81.4827 161.662 67.1567 177.47 40.4807 177.47ZM96.8199 175V2.09999H135.105L153.136 127.576L171.167 2.09999H209.452V175H183.764V44.09L163.51 175H140.786L120.532 44.09V175H96.8199ZM269 177.47C242.324 177.47 227.751 161.662 227.751 133.998V43.102C227.751 15.438 242.324 -0.370009 269 -0.370009C295.676 -0.370009 310.249 15.438 310.249 43.102V133.998C310.249 161.662 295.676 177.47 269 177.47ZM269 152.77C277.645 152.77 283.079 148.077 283.079 135.727V41.373C283.079 29.023 277.645 24.33 269 24.33C260.355 24.33 254.921 29.023 254.921 41.373V135.727C254.921 148.077 260.355 152.77 269 152.77ZM389.633 175L366.909 98.924L355.794 120.66V175H328.624V2.09999H355.794V76.447L389.88 2.09999H417.544L385.187 65.579L418.038 175H389.633ZM430.897 175V2.09999H504.997V26.8H458.067V72.495H495.364V97.195H458.067V150.3H504.997V175H430.897ZM515.711 112.015V89.785H570.051V112.015H515.711ZM586.237 175V2.09999H619.829L647.246 105.593V2.09999H671.452V175H644.035L610.443 48.783V175H586.237ZM687.694 112.015V89.785H742.034V112.015H687.694ZM767.406 175L749.869 2.09999H776.051L788.401 137.456L801.492 2.09999H831.132L844.223 137.456L856.573 2.09999H880.038L862.501 175H828.662L816.065 56.193L803.468 175H767.406ZM893.781 175V2.09999H920.951V175H893.781ZM941.299 175V2.09999H974.891L1002.31 105.593V2.09999H1026.51V175H999.097L965.505 48.783V175H941.299ZM1085.24 177.47C1058.56 177.47 1044.73 161.662 1044.73 133.998V43.102C1044.73 15.438 1058.56 -0.370009 1085.24 -0.370009C1111.92 -0.370009 1125.75 15.438 1125.75 43.102V57.922H1100.06V41.373C1100.06 29.023 1094.63 24.33 1085.98 24.33C1077.34 24.33 1071.9 29.023 1071.9 41.373V135.974C1071.9 148.324 1077.34 152.77 1085.98 152.77C1094.63 152.77 1100.06 148.324 1100.06 135.974V102.135H1086.48V77.435H1125.75V133.998C1125.75 161.662 1111.92 177.47 1085.24 177.47ZM1178.76 177.47C1152.08 177.47 1138.74 161.662 1138.74 133.998V124.118H1164.43V135.974C1164.43 148.324 1169.86 152.77 1178.51 152.77C1187.15 152.77 1192.83 148.324 1192.83 135.48C1192.83 121.154 1186.91 112.262 1169.12 96.701C1146.4 76.694 1138.74 62.368 1138.74 42.608C1138.74 15.438 1152.82 -0.370009 1179.25 -0.370009C1205.68 -0.370009 1218.77 15.438 1218.77 43.102V50.265H1193.08V41.373C1193.08 29.023 1188.14 24.33 1179.5 24.33C1170.85 24.33 1165.66 29.023 1165.66 40.879C1165.66 53.476 1171.84 62.368 1189.62 77.929C1212.35 97.936 1219.76 112.015 1219.76 133.504C1219.76 161.662 1205.43 177.47 1178.76 177.47Z" fill="#F8B895" fill-opacity="0.45" style="mix-blend-mode:multiply"/>
</svg>
